<svg width="64" height="64" viewBox="0 0 64 64" fill="none" xmlns="http://www.w3.org/2000/svg">
<path d="M19.6 45.1401C12.82 44.1601 7.6 38.3601 7.6 31.3001C7.6 24.2401 12.82 18.4401 19.6 17.4601V12.0801C9.74 12.9801 2 21.2401 2 31.3401C2 41.4201 9.74 49.7001 19.6 50.5801V45.1201V45.1401Z" fill="#FBC63A"/>
<path d="M42.2801 12H23.5801V17.46C30.3601 18.44 35.5801 24.24 35.5801 31.3C35.5801 38.36 30.3601 44.16 23.5801 45.14V50.68H42.2801C52.9601 50.68 61.6201 42.02 61.6201 31.34C61.6201 20.66 52.9601 12 42.2801 12Z" fill="#2845C1"/>
<rect x="20" y="42" width="24" height="18" rx="9" fill="#F0F1F2"/>
<rect x="20" y="42" width="24" height="18" rx="9" fill="url(#paint0_linear_12863_23067)" fill-opacity="0.1"/>
<path d="M37.9803 56.5564C37.5271 56.697 37.1232 56.7728 36.7685 56.7728C35.5862 56.7728 34.7882 55.8206 34.3842 53.9053H34.335C33.3596 55.972 31.9901 57 30.266 57C28.9754 57 27.9409 56.4698 27.1626 55.3986C26.3842 54.3273 26 52.9856 26 51.3625C26 49.4689 26.4433 47.954 27.3202 46.7746C28.197 45.5951 29.3892 45 30.8966 45C31.7044 45 32.4335 45.2489 33.064 45.7358C33.6946 46.2335 34.1773 46.9261 34.5123 47.8242H34.5517L35.2512 45.2272H37.7734L35.665 50.9838C35.9015 52.3255 36.1478 53.2453 36.4236 53.7322C36.6601 54.2191 36.9951 54.468 37.4089 54.468C37.6453 54.468 37.8325 54.4247 38 54.349L37.9803 56.5564ZM33.7833 50.8864C33.5764 49.6637 33.2414 48.7115 32.7882 48.0622C32.3448 47.4022 31.803 47.0775 31.1823 47.0775C30.3744 47.0775 29.7241 47.4779 29.2414 48.2678C28.7586 49.0685 28.5419 50.0532 28.5419 51.211C28.5419 52.2714 28.7291 53.1479 29.1527 53.862C29.5665 54.5762 30.1281 54.9225 30.8276 54.9225C31.4187 54.9225 31.9606 54.6087 32.4433 54.0135C32.936 53.3968 33.3399 52.4986 33.665 51.3192L33.7833 50.8864Z" fill="#FBC63A"/>
<defs>
<linearGradient id="paint0_linear_12863_23067" x1="32" y1="42" x2="32" y2="60" gradientUnits="userSpaceOnUse">
<stop stop-color="#FBC63A"/>
<stop offset="1" stop-color="#F0F1F2"/>
</linearGradient>
</defs>
</svg>
