<svg width="151" height="40" viewBox="0 0 151 40" fill="none" xmlns="http://www.w3.org/2000/svg">
<path d="M13.8 26.57C10.41 26.08 7.8 23.18 7.8 19.65C7.8 16.12 10.41 13.22 13.8 12.73V10.04C8.87 10.49 5 14.62 5 19.67C5 24.71 8.87 28.85 13.8 29.29V26.56V26.57Z" fill="#FBC63A"/>
<path d="M25.14 10H15.79V12.73C19.18 13.22 21.79 16.12 21.79 19.65C21.79 23.18 19.18 26.08 15.79 26.57V29.34H25.14C30.48 29.34 34.81 25.01 34.81 19.67C34.81 14.33 30.48 10 25.14 10Z" fill="#2845C1"/>
<rect x="14" y="25" width="12" height="9" rx="4.5" fill="#F0F1F2"/>
<rect x="14" y="25" width="12" height="9" rx="4.5" fill="url(#paint0_linear_12904_4684)" fill-opacity="0.1"/>
<path d="M22.9901 32.2782C22.7635 32.3485 22.5616 32.3864 22.3842 32.3864C21.7931 32.3864 21.3941 31.9103 21.1921 30.9527H21.1675C20.6798 31.986 19.9951 32.5 19.133 32.5C18.4877 32.5 17.9704 32.2349 17.5813 31.6993C17.1921 31.1637 17 30.4928 17 29.6812C17 28.7344 17.2217 27.977 17.6601 27.3873C18.0985 26.7976 18.6946 26.5 19.4483 26.5C19.8522 26.5 20.2167 26.6244 20.532 26.8679C20.8473 27.1168 21.0887 27.463 21.2562 27.9121H21.2759L21.6256 26.6136H22.8867L21.8325 29.4919C21.9507 30.1628 22.0739 30.6226 22.2118 30.8661C22.33 31.1096 22.4975 31.234 22.7044 31.234C22.8227 31.234 22.9163 31.2124 23 31.1745L22.9901 32.2782ZM20.8916 29.4432C20.7882 28.8318 20.6207 28.3557 20.3941 28.0311C20.1724 27.7011 19.9015 27.5388 19.5911 27.5388C19.1872 27.5388 18.8621 27.739 18.6207 28.1339C18.3793 28.5343 18.2709 29.0266 18.2709 29.6055C18.2709 30.1357 18.3645 30.5739 18.5764 30.931C18.7833 31.2881 19.064 31.4612 19.4138 31.4612C19.7094 31.4612 19.9803 31.3043 20.2217 31.0068C20.468 30.6984 20.67 30.2493 20.8325 29.6596L20.8916 29.4432Z" fill="#FBC63A"/>
<path d="M49.174 26.064C49.9807 26.064 50.714 25.9173 51.374 25.624C52.0487 25.3307 52.6353 24.92 53.134 24.392C53.6327 23.864 54.014 23.2553 54.278 22.566C54.542 21.862 54.674 21.1067 54.674 20.3C54.674 19.4933 54.542 18.7453 54.278 18.056C54.014 17.352 53.6327 16.736 53.134 16.208C52.6353 15.68 52.0487 15.2693 51.374 14.976C50.714 14.6827 49.9807 14.536 49.174 14.536C48.3673 14.536 47.6267 14.6827 46.952 14.976C46.292 15.2693 45.7127 15.68 45.214 16.208C44.7153 16.736 44.3267 17.352 44.048 18.056C43.784 18.7453 43.652 19.4933 43.652 20.3C43.652 21.1067 43.784 21.862 44.048 22.566C44.3267 23.2553 44.7153 23.864 45.214 24.392C45.7127 24.92 46.292 25.3307 46.952 25.624C47.6267 25.9173 48.3673 26.064 49.174 26.064ZM49.174 12.16C50.3767 12.16 51.4767 12.38 52.474 12.82C53.4713 13.2453 54.3293 13.832 55.048 14.58C55.7667 15.328 56.3167 16.1933 56.698 17.176C57.094 18.1587 57.292 19.2 57.292 20.3C57.292 21.4 57.094 22.4413 56.698 23.424C56.3167 24.4067 55.7667 25.272 55.048 26.02C54.3293 26.768 53.4713 27.362 52.474 27.802C51.4767 28.2273 50.3767 28.44 49.174 28.44C47.9713 28.44 46.8713 28.2273 45.874 27.802C44.8767 27.362 44.0113 26.768 43.278 26.02C42.5593 25.272 42.002 24.4067 41.606 23.424C41.2247 22.4413 41.034 21.4 41.034 20.3C41.034 19.2 41.232 18.1587 41.628 17.176C42.024 16.1933 42.5813 15.328 43.3 14.58C44.0187 13.832 44.8767 13.2453 45.874 12.82C46.8713 12.38 47.9713 12.16 49.174 12.16ZM59.7342 33.412V16.912H62.0002V19.31V33.412H59.7342ZM71.4162 22.456C71.4162 23.2627 71.2842 24.0253 71.0202 24.744C70.7562 25.4627 70.3748 26.1007 69.8762 26.658C69.3922 27.2153 68.7982 27.6553 68.0942 27.978C67.3902 28.286 66.6055 28.44 65.7402 28.44C64.9775 28.44 64.2955 28.3153 63.6942 28.066C63.1075 27.8313 62.5868 27.4793 62.1322 27.01C61.6922 26.5407 61.2962 25.9833 60.9442 25.338L61.9782 24.37C62.3888 25.0007 62.8875 25.4847 63.4742 25.822C64.0755 26.1447 64.7355 26.306 65.4542 26.306C66.1728 26.306 66.7962 26.1373 67.3242 25.8C67.8668 25.448 68.2848 24.986 68.5782 24.414C68.8715 23.8273 69.0182 23.1747 69.0182 22.456C69.0182 21.7227 68.8715 21.07 68.5782 20.498C68.2848 19.926 67.8668 19.4713 67.3242 19.134C66.7962 18.782 66.1728 18.606 65.4542 18.606C64.7355 18.606 64.0755 18.7747 63.4742 19.112C62.8875 19.4347 62.3888 19.9113 61.9782 20.542L60.9442 19.574C61.2962 18.9287 61.6922 18.3713 62.1322 17.902C62.5868 17.4327 63.1075 17.0807 63.6942 16.846C64.2955 16.5967 64.9775 16.472 65.7402 16.472C66.8988 16.472 67.8962 16.7507 68.7322 17.308C69.5828 17.8507 70.2428 18.5767 70.7122 19.486C71.1815 20.3807 71.4162 21.3707 71.4162 22.456ZM79.0961 28.44C77.8201 28.44 76.7274 28.1687 75.8181 27.626C74.9087 27.0687 74.2121 26.3353 73.7281 25.426C73.2441 24.5167 73.0021 23.5267 73.0021 22.456C73.0021 21.62 73.1267 20.8427 73.3761 20.124C73.6401 19.3907 74.0141 18.7527 74.4981 18.21C74.9821 17.6673 75.5687 17.242 76.2581 16.934C76.9621 16.626 77.7541 16.472 78.6341 16.472C79.3967 16.472 80.0861 16.5967 80.7021 16.846C81.3181 17.0953 81.8461 17.44 82.2861 17.88C82.7261 18.32 83.0634 18.8407 83.2981 19.442C83.5474 20.0287 83.6721 20.674 83.6721 21.378C83.6721 21.6273 83.6574 21.8693 83.6281 22.104C83.5987 22.3387 83.5621 22.544 83.5181 22.72H74.6301V21.026H81.7361L81.4061 21.114C81.4061 20.6447 81.2961 20.1973 81.0761 19.772C80.8707 19.3467 80.5554 19.0093 80.1301 18.76C79.7194 18.496 79.2061 18.364 78.5901 18.364C77.9154 18.364 77.3287 18.518 76.8301 18.826C76.3461 19.134 75.9721 19.5813 75.7081 20.168C75.4441 20.7547 75.3121 21.466 75.3121 22.302C75.3121 23.1967 75.4734 23.952 75.7961 24.568C76.1187 25.1693 76.5587 25.624 77.1161 25.932C77.6881 26.24 78.3481 26.394 79.0961 26.394C79.7707 26.394 80.3794 26.262 80.9221 25.998C81.4647 25.7193 81.9047 25.3453 82.2421 24.876L83.8921 26.196C83.3787 26.8853 82.7114 27.4353 81.8901 27.846C81.0687 28.242 80.1374 28.44 79.0961 28.44ZM79.8661 15.152H77.6661L79.9541 11.5H82.4621L79.8661 15.152ZM86.2038 28V16.912H88.4698V19.398V28H86.2038ZM88.4698 20.608L87.4358 19.574C87.6704 19.2073 87.9198 18.8553 88.1838 18.518C88.4624 18.166 88.7631 17.8507 89.0858 17.572C89.4231 17.2933 89.7971 17.0807 90.2078 16.934C90.6184 16.7727 91.0731 16.692 91.5718 16.692C91.7624 16.692 91.9311 16.7067 92.0778 16.736C92.2391 16.7653 92.3931 16.802 92.5398 16.846V19.068C92.3638 19.024 92.1804 18.9873 91.9898 18.958C91.8138 18.9287 91.6084 18.914 91.3738 18.914C90.9044 18.914 90.4864 18.9947 90.1198 19.156C89.7531 19.3027 89.4304 19.5007 89.1518 19.75C88.8878 19.9993 88.6604 20.2853 88.4698 20.608ZM98.2577 18.474C97.6564 18.474 97.1211 18.606 96.6517 18.87C96.1824 19.134 95.7864 19.486 95.4637 19.926L93.7697 18.65C94.2684 17.9753 94.9064 17.4473 95.6837 17.066C96.4611 16.67 97.3411 16.472 98.3237 16.472C99.3211 16.472 100.164 16.6553 100.854 17.022C101.558 17.374 102.086 17.8727 102.438 18.518C102.79 19.1487 102.966 19.8673 102.966 20.674V28H100.7V25.998V20.674C100.7 19.9993 100.472 19.464 100.018 19.068C99.5631 18.672 98.9764 18.474 98.2577 18.474ZM97.1577 28.33C96.0577 28.33 95.1631 28.044 94.4737 27.472C93.7991 26.8853 93.4617 26.1007 93.4617 25.118C93.4617 24.282 93.7771 23.578 94.4077 23.006C95.0384 22.4193 95.9404 22.0307 97.1137 21.84L100.81 21.224L101.25 22.764L97.7077 23.358C97.0184 23.4753 96.5197 23.6807 96.2117 23.974C95.9037 24.2527 95.7497 24.6047 95.7497 25.03C95.7497 25.4553 95.9111 25.8073 96.2337 26.086C96.5711 26.35 97.0184 26.482 97.5757 26.482C98.2651 26.482 98.8737 26.328 99.4017 26.02C99.9444 25.6973 100.384 25.2647 100.722 24.722L101.096 26.108C100.89 26.5627 100.582 26.9587 100.172 27.296C99.7611 27.6187 99.2917 27.868 98.7637 28.044C98.2357 28.2347 97.7004 28.33 97.1577 28.33ZM104.648 18.958V16.912H112.7V18.958H104.648ZM106.738 24.15V14.14H109.026V24.15C109.026 24.6487 109.106 25.0447 109.268 25.338C109.444 25.6313 109.678 25.8367 109.972 25.954C110.28 26.0713 110.639 26.13 111.05 26.13C111.431 26.13 111.754 26.108 112.018 26.064C112.282 26.02 112.509 25.9613 112.7 25.888V27.89C112.436 28.0073 112.142 28.088 111.82 28.132C111.497 28.1907 111.123 28.22 110.698 28.22C109.832 28.22 109.106 28.0733 108.52 27.78C107.933 27.472 107.486 27.0173 107.178 26.416C106.884 25.8 106.738 25.0447 106.738 24.15ZM119.961 28.44C118.685 28.44 117.592 28.1687 116.683 27.626C115.774 27.0687 115.077 26.3353 114.593 25.426C114.109 24.5167 113.867 23.5267 113.867 22.456C113.867 21.62 113.992 20.8427 114.241 20.124C114.505 19.3907 114.879 18.7527 115.363 18.21C115.847 17.6673 116.434 17.242 117.123 16.934C117.827 16.626 118.619 16.472 119.499 16.472C120.262 16.472 120.951 16.5967 121.567 16.846C122.183 17.0953 122.711 17.44 123.151 17.88C123.591 18.32 123.928 18.8407 124.163 19.442C124.412 20.0287 124.537 20.674 124.537 21.378C124.537 21.6273 124.522 21.8693 124.493 22.104C124.464 22.3387 124.427 22.544 124.383 22.72H115.495V21.026H122.601L122.271 21.114C122.271 20.6447 122.161 20.1973 121.941 19.772C121.736 19.3467 121.42 19.0093 120.995 18.76C120.584 18.496 120.071 18.364 119.455 18.364C118.78 18.364 118.194 18.518 117.695 18.826C117.211 19.134 116.837 19.5813 116.573 20.168C116.309 20.7547 116.177 21.466 116.177 22.302C116.177 23.1967 116.338 23.952 116.661 24.568C116.984 25.1693 117.424 25.624 117.981 25.932C118.553 26.24 119.213 26.394 119.961 26.394C120.636 26.394 121.244 26.262 121.787 25.998C122.33 25.7193 122.77 25.3453 123.107 24.876L124.757 26.196C124.244 26.8853 123.576 27.4353 122.755 27.846C121.934 28.242 121.002 28.44 119.961 28.44ZM134.442 23.248V16.912H136.73V23.138C136.73 24.7953 136.276 26.0933 135.366 27.032C134.472 27.9707 133.254 28.44 131.714 28.44C130.673 28.44 129.778 28.2273 129.03 27.802C128.282 27.3767 127.703 26.768 127.292 25.976C126.882 25.184 126.676 24.238 126.676 23.138V16.912H128.964V23.248C128.964 24.2013 129.206 24.9493 129.69 25.492C130.174 26.0347 130.849 26.306 131.714 26.306C132.565 26.306 133.232 26.0347 133.716 25.492C134.2 24.9493 134.442 24.2013 134.442 23.248ZM139.734 28V16.912H142V19.398V28H139.734ZM142 20.608L140.966 19.574C141.201 19.2073 141.45 18.8553 141.714 18.518C141.993 18.166 142.294 17.8507 142.616 17.572C142.954 17.2933 143.328 17.0807 143.738 16.934C144.149 16.7727 144.604 16.692 145.102 16.692C145.293 16.692 145.462 16.7067 145.608 16.736C145.77 16.7653 145.924 16.802 146.07 16.846V19.068C145.894 19.024 145.711 18.9873 145.52 18.958C145.344 18.9287 145.139 18.914 144.904 18.914C144.435 18.914 144.017 18.9947 143.65 19.156C143.284 19.3027 142.961 19.5007 142.682 19.75C142.418 19.9993 142.191 20.2853 142 20.608Z" fill="#2845C1"/>
<defs>
<linearGradient id="paint0_linear_12904_4684" x1="20" y1="25" x2="20" y2="34" gradientUnits="userSpaceOnUse">
<stop stop-color="#FBC63A"/>
<stop offset="1" stop-color="#F0F1F2"/>
</linearGradient>
</defs>
</svg>
