<svg width="248" height="153" viewBox="0 0 248 153" fill="none" xmlns="http://www.w3.org/2000/svg">
<path d="M223.104 56.106H226.088V97.8868H223.104V56.106Z" fill="#E3E3FD"/>
<path d="M205.794 54.5222C205.794 45.0776 213.276 0 222.506 0C231.737 0 239.219 45.0776 239.219 54.5222C239.219 63.9677 231.737 71.6243 222.506 71.6243C213.276 71.6243 205.794 63.9677 205.794 54.5222Z" fill="#3E5DE7"/>
<mask id="mask0_12928_20794" style="mask-type:alpha" maskUnits="userSpaceOnUse" x="208" y="2" width="34" height="72">
<path d="M208.232 57.7819C208.232 48.6628 216.976 2.07568 226.07 2.07568C235.163 2.07568 241.163 48.6628 241.163 57.7819C241.163 66.901 233.791 73.0045 224.698 73.0045C215.604 73.0045 208.232 66.901 208.232 57.7819Z" fill="black" fill-opacity="0.25"/>
</mask>
<g mask="url(#mask0_12928_20794)">
<path d="M205.587 54.9626C205.587 45.4586 213.279 1.36816 222.689 1.36816C232.099 1.36816 239.107 45.2224 239.107 54.7263C239.107 64.2303 232.099 71.1442 222.689 71.1442C213.279 71.1442 205.587 64.4666 205.587 54.9626Z" fill="black"/>
</g>
<path d="M136.557 42.9744H134.767V89.5301H136.557V42.9744Z" fill="#E3E3FD"/>
<path d="M178.935 42.3774H229.669V97.8863H178.935V42.3774Z" fill="white"/>
<path d="M193.509 16.7124H153.333L127.604 42.3778H179.064L194.453 26.0203L193.509 16.7124Z" fill="#FCC73B"/>
<path d="M203.406 3.58105H197.438V18.5028H203.405L203.406 3.58105Z" fill="#F3E4AE"/>
<path d="M213.553 10.2135L204.003 3.58105L194.453 10.1466V25.6652H213.553V10.2135Z" fill="white"/>
<path d="M127.604 42.3774H178.935V97.8863H127.604V42.3774Z" fill="#4C6CEF"/>
<path d="M213.362 25.6658H194.337L178.935 42.3781H229.668L213.362 25.6658Z" fill="white"/>
<path d="M198.632 45.3621H190.275V57.8963H198.632V45.3621Z" fill="#4C6CEF"/>
<path d="M190.275 51.3306H198.632" stroke="white" stroke-width="0.97289"/>
<path d="M194.453 45.3621V57.8963" stroke="white" stroke-width="0.97289"/>
<path d="M220.716 45.3621H212.359V57.8963H220.716V45.3621Z" fill="#4C6CEF"/>
<path d="M212.359 51.3306H220.716" stroke="white" stroke-width="0.97289"/>
<path d="M216.538 45.3621V57.8963" stroke="white" stroke-width="0.97289"/>
<path d="M221.312 65.0586H213.553V78.7866H221.312V65.0586Z" fill="#4C6CEF"/>
<path d="M213.553 71.0273H221.312" stroke="white" stroke-width="0.97289"/>
<path d="M217.73 65.0586V78.7866" stroke="white" stroke-width="0.97289"/>
<path d="M198.632 65.0586H190.275V78.7866H198.632V65.0586Z" fill="#4C6CEF"/>
<path d="M190.275 71.0273H198.632" stroke="white" stroke-width="0.97289"/>
<path d="M194.453 65.0586V78.7866" stroke="white" stroke-width="0.97289"/>
<path d="M194.453 10.1467H187.888V25.6653H194.453V10.1467Z" fill="#C8D3FF"/>
<path d="M194.453 10.1466H187.888L197.474 3.58105H204.003L194.453 10.1466Z" fill="#FCC73B"/>
<path d="M213.207 119.467H215.595V152.891H213.207V119.467Z" fill="#3E5DE7"/>
<path d="M13.6816 119.371H19.1543V135.789H13.6816V119.371Z" fill="#3E5DE7"/>
<path d="M197.266 117.742C197.266 108.219 204.749 62.7654 213.978 62.7654C223.208 62.7654 230.69 108.219 230.69 117.742C230.69 127.266 223.208 134.987 213.978 134.987C204.749 134.987 197.266 127.266 197.266 117.742Z" fill="#3E5DE7"/>
<path d="M200.251 117.696C200.251 108.136 206.73 64.5549 216.073 64.5549C221.92 64.5549 230.691 108.136 230.691 117.696C230.691 127.257 223.589 134.389 214.246 134.389C204.902 134.389 200.251 127.257 200.251 117.696Z" fill="black" fill-opacity="0.2"/>
<path d="M0 110.044C0 100.521 7.48292 55.0676 16.7123 55.0676C25.9426 55.0676 33.4247 100.521 33.4247 110.044C33.4247 119.568 25.9426 127.289 16.7123 127.289C7.48292 127.289 0 119.568 0 110.044Z" fill="#3E5DE7"/>
<path d="M2.98438 109.999C2.98438 100.439 9.46313 56.8574 18.8065 56.8574C24.6538 56.8574 33.4247 100.439 33.4247 109.999C33.4247 119.56 26.3227 126.691 16.9794 126.691C7.63514 126.691 2.98438 119.56 2.98438 109.999Z" fill="black" fill-opacity="0.2"/>
<path fill-rule="evenodd" clip-rule="evenodd" d="M247.997 152.892C247.999 152.793 248 152.694 248 152.596C248 143.529 240.517 136.179 231.288 136.179C222.057 136.179 214.575 143.529 214.575 152.596C214.575 152.694 214.576 152.793 214.578 152.892H247.997Z" fill="#3E5DE7"/>
<mask id="mask1_12928_20794" style="mask-type:alpha" maskUnits="userSpaceOnUse" x="214" y="135" width="34" height="18">
<path fill-rule="evenodd" clip-rule="evenodd" d="M247.568 152.601C247.569 152.508 247.57 152.415 247.57 152.322C247.57 143.295 240.254 135.979 231.227 135.979C222.202 135.979 214.885 143.295 214.885 152.322C214.885 152.415 214.886 152.508 214.887 152.601H247.568Z" fill="black" fill-opacity="0.25"/>
</mask>
<g mask="url(#mask1_12928_20794)">
<path fill-rule="evenodd" clip-rule="evenodd" d="M252.598 152.606C252.599 152.512 252.599 152.416 252.599 152.322C252.599 143.295 245.283 135.979 236.257 135.979C227.231 135.979 219.914 143.295 219.914 152.322C219.914 152.416 219.915 152.512 219.917 152.606H252.598Z" fill="black"/>
</g>
<path d="M187.716 63.9587H181.15V80.0742H187.716V63.9587Z" fill="white"/>
<path d="M181.15 63.9587H162.647V80.0742H181.15V63.9587Z" fill="#C8D3FF"/>
<path d="M111.914 96.7866H162.051V152.892H111.914V96.7866Z" fill="#4C6CEF"/>
<path d="M138.176 72.6118H187.716L213.381 96.785H161.946L138.176 72.6118Z" fill="#FCC73B"/>
<path d="M162.051 96.7866H213.382V152.892H162.051V96.7866Z" fill="white"/>
<path d="M186.522 120.064C186.522 116.768 188.928 114.096 191.894 114.096C194.861 114.096 197.266 116.768 197.266 120.064V149.908H186.522V120.064Z" fill="#4C6CEF"/>
<path d="M138.176 72.6118L162.051 96.785H111.914L138.176 72.6118Z" fill="#4C6CEF"/>
<path d="M75.6271 72.4873H132.115V135.7H75.6271V72.4873Z" fill="#4C6CEF"/>
<path d="M91.7666 43.5706H46.6738L17.7939 72.4871H75.5533C81.6876 61.1942 85.6333 54.8635 91.7666 43.5706Z" fill="#FCC73B"/>
<path d="M46.7109 60.3823L63.8591 61.7275L69.5752 72.4869L46.7109 60.3823Z" fill="#7E98FF"/>
<path d="M46.9951 60.3823L17.7939 75.8493H75.6271L46.9951 60.3823Z" fill="white"/>
<path d="M85.715 36.8455H93.1123V55.0024H85.715V36.8455Z" fill="#C8D3FF"/>
<path d="M93.1122 36.8455H113.959V55.0024H93.1122V36.8455Z" fill="#4C6CEF"/>
<path d="M17.7948 72.4873H75.6279V135.7H17.7948V72.4873Z" fill="white"/>
<path d="M93.1124 55.0022H83.8208L75.6279 72.4866L93.1124 55.0022Z" fill="#FCC73B"/>
<path d="M113.96 55.0022H92.7769L75.6279 72.4866H132.116L113.96 55.0022Z" fill="#4C6CEF"/>
<path d="M52.0908 116.031C52.0908 112.409 48.9294 109.474 45.0297 109.474C41.1301 109.474 37.9688 112.409 37.9688 116.031V135.701H52.0908V116.031Z" fill="#4C6CEF"/>
<path d="M25.1927 84.592H34.6074V99.3866H25.1927V84.592Z" fill="#4C6CEF"/>
<path d="M34.6074 91.3162H25.1927" stroke="white" stroke-width="0.97289"/>
<path d="M42.6771 84.592H52.0918V99.3866H42.6771V84.592Z" fill="#4C6CEF"/>
<path d="M52.0918 91.3162H42.6771" stroke="white" stroke-width="0.97289"/>
<path d="M59.4886 84.592H68.9033V99.3866H59.4886V84.592Z" fill="#4C6CEF"/>
<path d="M68.9033 91.3162H59.4886" stroke="white" stroke-width="0.97289"/>
<path d="M45.8029 71.0515C44.1317 71.0515 42.7768 69.8471 42.7768 68.3615C42.7768 66.8759 44.1317 65.6716 45.8029 65.6716C47.4742 65.6716 48.8291 66.8759 48.8291 68.3615C48.8291 69.8471 47.4742 71.0515 45.8029 71.0515Z" fill="#7E98FF"/>
<path d="M30.2856 62.2939L40.8418 57.3435L43.4626 62.9322L32.9064 67.8826L30.2856 62.2939Z" fill="#C4C4C4"/>
<path d="M37.1161 59.0907L40.8418 57.3435L43.4626 62.9322L39.7368 64.6794L37.1161 59.0907Z" fill="#4C6CEF"/>
<path d="M33.3905 60.8358L37.1162 59.0886L39.737 64.6773L36.0113 66.4245L33.3905 60.8358Z" fill="white"/>
<path d="M29.6659 62.5841L33.3916 60.8369L36.0124 66.4256L32.2866 68.1728L29.6659 62.5841Z" fill="#CE0500"/>
<path d="M40.6124 57.4714L41.2334 57.1802L46.475 68.3575L45.854 68.6487L40.6124 57.4714Z" fill="#7E98FF"/>
<path d="M62.0435 62.2939L51.4873 57.3435L48.8665 62.9322L59.4227 67.8826L62.0435 62.2939Z" fill="#C4C4C4"/>
<path d="M55.2131 59.0907L51.4873 57.3435L48.8665 62.9322L52.5923 64.6794L55.2131 59.0907Z" fill="#4C6CEF"/>
<path d="M58.9386 60.8358L55.2129 59.0886L52.5921 64.6773L56.3179 66.4245L58.9386 60.8358Z" fill="white"/>
<path d="M62.6652 62.5841L58.9395 60.8369L56.3187 66.4256L60.0444 68.1728L62.6652 62.5841Z" fill="#CE0500"/>
<path d="M51.7167 57.4714L51.0957 57.1802L45.8541 68.3575L46.4751 68.6487L51.7167 57.4714Z" fill="#7E98FF"/>
<path d="M29.8994 84.759V99.5536" stroke="white" stroke-width="0.97289"/>
<path d="M47.3828 84.759V99.5536" stroke="white" stroke-width="0.97289"/>
<path d="M64.1953 84.592V99.3866" stroke="white" stroke-width="0.97289"/>
</svg>
